<svg width="152" height="82" xmlns="http://www.w3.org/2000/svg">
 <style type="text/css">.st0{fill:#1D1D1B;}</style>

 <g>
  <title>background</title>
  <rect fill="none" id="canvas_background" height="84" width="154" y="-1" x="-1"/>
 </g>
 <g>
  <title>Layer 1</title>
  <g id="svg_1">
   <path id="svg_2" d="m76,2c-16,0 -28.9,12.9 -28.9,28.9c0,16 12.9,28.9 28.9,28.9c16,0 28.9,-12.9 28.9,-28.9c0,-16 -13,-28.9 -28.9,-28.9zm5.7,17c0.2,0 0.5,0 0.7,0c-3.9,0.8 -6,4.3 -6,7.4c0,0 0.1,2.5 2.1,4.5c-0.7,0.4 -1.2,0.6 -1.8,1.1c-0.5,-0.4 -2.5,-2.2 -2.4,-5.7c0.2,-5.1 4.4,-7.3 7.4,-7.3zm-18.3,-4l1.9,0l0,24.4c0.1,3.8 2.6,5.7 4.1,6.5c-0.1,0 -0.4,0.1 -0.7,0.1c-0.5,0 -1.3,-0.1 -2.1,-0.6c-2,-1.2 -3.3,-3.5 -3.3,-6l0,-24.4l0.1,0zm5.2,31.5c-4.5,0 -7.7,-3 -7.7,-7.2l0,-24.3l1.9,0l0,24.4c-0.1,1.9 0.6,3.6 1.9,5c1.1,1.2 2.6,1.9 3.9,1.9l0,0c2.1,0 4.7,-1.6 5.7,-4.8c0.1,0.3 0.3,1.1 1,2c-1.4,1.8 -4,3 -6.7,3l0,0zm2.3,0c1.7,-0.3 3.7,-1.5 4.7,-2.7c0.4,0.5 0.7,0.8 1.1,1.1c-1.1,1.1 -4,1.8 -5.8,1.6zm3.5,-7.9c-0.1,-2.1 0.7,-4.1 2.2,-5.6c1.6,-1.7 3.9,-2.6 6.5,-2.6c0.7,0 1.4,0.1 2.1,0.2l-0.7,1.5c-5.7,-0.3 -7.8,3.2 -8,6.4c-0.1,2.1 0.6,4.2 2,5.7c1.1,1.2 2.5,1.9 3.9,1.9c2.7,0 5.6,-2.4 5.8,-6.8l1.9,0c-0.1,4.3 -3.2,7.2 -7.9,7.2c-5.6,0 -7.7,-4.7 -7.8,-7.9zm10,-19c0.1,0 0.3,0 0.4,0c0.7,0 1.5,0.2 2.1,0.6c1.9,1.3 2.9,3 3.1,5.5l-1.9,0c-0.2,-2.9 -1.4,-4.9 -3.7,-6.1zm-1.3,26.2c-0.4,0.1 -1.7,0.2 -3,-0.7c-1.9,-1.2 -3,-3.5 -3,-6c0,-3.7 2.7,-6.4 6.4,-6.4c0.2,0 0.5,0 0.7,0l-0.7,1.6c-2.8,0.3 -4.5,2.3 -4.5,5.4c0,2.6 1.7,5.3 4.1,6.1zm2.5,0.7c-0.3,0 -0.9,0.1 -1.2,0c1.9,-0.4 5.9,-1.8 6.2,-7.2l1.9,0c-0.1,4 -2.6,6.7 -6.9,7.2zm5.1,-20.8c-0.3,-5 -3.9,-6.3 -6,-6.3c-0.1,0 -0.1,0 -0.2,0c-2.9,0 -5.5,2.8 -5.6,5.9c0,0 0,3.3 2.6,4.7c-0.7,0.1 -1.6,0.3 -2.5,0.6c-0.5,-0.5 -2,-2.2 -2,-4.6c0,-4 3.3,-7.1 7.6,-7.1c4.5,0 7.7,2.7 7.9,6.7l-1.8,0l0,0.1z" class="st0"/>
   <g id="svg_3">
    <polygon id="svg_4" points="2.5,69.30000305175781 2.5,78.9000015258789 9.399993896484375,78.9000015258789 9.399993896484375,77 4.600006103515625,77 4.600006103515625,69.30000305175781 " class="st0"/>
    <rect id="svg_5" height="9.6" width="2.1" class="st0" y="69.3" x="13"/>
    <polygon id="svg_6" points="19.399993896484375,69.30000305175781 21.699996948242188,69.30000305175781 24.20001220703125,73.4000015258789 26.70001220703125,69.30000305175781 29,69.30000305175781 29,78.9000015258789 26.899993896484375,78.9000015258789 26.899993896484375,72.5999984741211 24.20001220703125,76.69999694824219 24.100006103515625,76.69999694824219 21.5,72.69999694824219 21.5,78.9000015258789 19.399993896484375,78.9000015258789 " class="st0"/>
    <rect id="svg_7" height="9.6" width="2.1" class="st0" y="69.3" x="33.3"/>
    <polygon id="svg_8" points="41.899993896484375,71.30000305175781 39,71.30000305175781 39,69.30000305175781 46.899993896484375,69.30000305175781 46.899993896484375,71.30000305175781 44,71.30000305175781 44,78.9000015258789 41.899993896484375,78.9000015258789 " class="st0"/>
    <polygon id="svg_9" points="50.399993896484375,69.30000305175781 57.600006103515625,69.30000305175781 57.600006103515625,71.19999694824219 52.5,71.19999694824219 52.5,73.0999984741211 57,73.0999984741211 57,75 52.5,75 52.5,77 57.70001220703125,77 57.70001220703125,78.9000015258789 50.399993896484375,78.9000015258789 " class="st0"/>
    <g id="svg_10">
     <path id="svg_11" d="m63.6,71.2l0,5.8l1.6,0c1.7,0 2.9,-1.2 2.9,-2.9l0,0c0,-1.7 -1.2,-2.9 -2.9,-2.9l-1.6,0zm-2.1,-1.9l3.7,0c3,0 5.1,2.1 5.1,4.8l0,0c0,2.7 -2.1,4.8 -5.1,4.8l-3.7,0l0,-9.6z" class="st0"/>
    </g>
    <polygon id="svg_12" points="80.10000610351562,69.30000305175781 87.29998779296875,69.30000305175781 87.29998779296875,71.19999694824219 82.20001220703125,71.19999694824219 82.20001220703125,73.0999984741211 86.70001220703125,73.0999984741211 86.70001220703125,75 82.20001220703125,75 82.20001220703125,77 87.39999389648438,77 87.39999389648438,78.9000015258789 80.10000610351562,78.9000015258789 " class="st0"/>
    <g id="svg_13">
     <path id="svg_14" d="m93.2,71.2l0,5.8l1.6,0c1.7,0 2.9,-1.2 2.9,-2.9l0,0c0,-1.7 -1.2,-2.9 -2.9,-2.9l-1.6,0zm-2.1,-1.9l3.7,0c3,0 5.1,2.1 5.1,4.8l0,0c0,2.7 -2.1,4.8 -5.1,4.8l-3.7,0l0,-9.6z" class="st0"/>
    </g>
    <rect id="svg_15" height="9.6" width="2.1" class="st0" y="69.3" x="103.6"/>
    <polygon id="svg_16" points="112.20001220703125,71.30000305175781 109.29998779296875,71.30000305175781 109.29998779296875,69.30000305175781 117.20001220703125,69.30000305175781 117.20001220703125,71.30000305175781 114.29998779296875,71.30000305175781 114.29998779296875,78.9000015258789 112.20001220703125,78.9000015258789 " class="st0"/>
    <rect id="svg_17" height="9.6" width="2.1" class="st0" y="69.3" x="120.8"/>
    <g id="svg_18">
     <path id="svg_19" d="m134.8,74.1l0,0c0,-1.7 -1.2,-3 -2.9,-3c-1.7,0 -2.9,1.3 -2.9,3l0,0c0,1.6 1.2,3 2.9,3c1.7,0 2.9,-1.3 2.9,-3m-8,0l0,0c0,-2.7 2.1,-5 5.1,-5c2.9,0 5.1,2.2 5.1,4.9l0,0c0,2.7 -2.1,4.9 -5.1,4.9c-3,0.1 -5.1,-2.1 -5.1,-4.8" class="st0"/>
    </g>
    <polygon id="svg_20" points="140.60000610351562,69.30000305175781 142.5,69.30000305175781 147,75.19999694824219 147,69.30000305175781 149.10000610351562,69.30000305175781 149.10000610351562,78.9000015258789 147.29998779296875,78.9000015258789 142.60000610351562,72.80000305175781 142.60000610351562,78.9000015258789 140.60000610351562,78.9000015258789 " class="st0"/>
   </g>
  </g>
 </g>
</svg>